<?xml version="1.0" encoding="UTF-8" standalone="no"?>
<svg width="148px" height="53px" viewBox="0 0 148 53" version="1.1" xmlns="http://www.w3.org/2000/svg" xmlns:xlink="http://www.w3.org/1999/xlink">
    <!-- Generator: Sketch 42 (36781) - http://www.bohemiancoding.com/sketch -->
    <title>Page 1</title>
    <desc>Created with Sketch.</desc>
    <defs></defs>
    <g id="Page-1" stroke="none" stroke-width="1" fill="none" fill-rule="evenodd">
        <g id="Brand-Building" transform="translate(-153.000000, -52.000000)">
            <g id="Page-1" transform="translate(153.000000, 52.000000)">
                <polygon id="Fill-1" fill="#FFFFFF" points="49.2951327 52.8468235 98.5902655 52.8468235 98.5902655 49.0131568 49.2951327 49.0131568"></polygon>
                <polygon id="Fill-2" fill="#009537" points="0.00130973451 52.8468235 49.2951327 52.8468235 49.2951327 49.0131568 0.00130973451 49.0131568"></polygon>
                <polygon id="Fill-3" fill="#D51317" points="98.5909204 52.8468235 147.884743 52.8468235 147.884743 49.0131568 98.5909204 49.0131568"></polygon>
                <path d="M20.7435752,7.01497531 L20.7435752,0.864358025 L0,0.864358025 L0,6.9678642 L11.4883363,6.9678642 L0,32.5688272 L0,39.0361358 L21.1089912,39.0361358 L21.1089912,32.521716 L9.4379469,32.521716 L20.7435752,7.01497531 Z M57.9871858,15.5322716 L53.428,0.864358025 L45.223823,0.864358025 L45.223823,39.0361358 L53.8844425,39.0361358 L53.8844425,24.6423827 L58.1685841,39.0361358 L66.4670619,39.0361358 L66.4670619,0.864358025 L57.9871858,0.864358025 L57.9871858,15.5322716 Z M82.1491681,31.6102469 C82.1491681,32.6375309 81.2153274,33.3415802 80.0745487,33.3415802 C79.0267611,33.3415802 77.9547434,32.8861728 77.9547434,31.5657531 L77.9547434,0.864358025 L69.2928142,0.864358025 L69.2928142,31.3838519 C69.2928142,35.3019259 73.3516814,39.9920988 80.0051327,39.9920988 C86.2067257,39.9920988 90.7207257,36.6674938 90.7207257,31.3838519 L90.7207257,0.864358025 L82.1491681,0.864358025 L82.1491681,31.6102469 Z M108.041965,17.491963 C102.427788,14.1451111 100.98708,12.754679 100.929451,9.65646914 C100.88623,7.10658025 101.47692,5.64875309 103.165168,5.69259259 C104.731611,5.73577778 105.170372,6.69501235 105.262708,7.6974321 L105.262708,12.7985185 L113.923327,12.7985185 L113.923327,8.9727037 C113.923327,4.1902716 110.824496,0.0444938272 103.300071,0.0444938272 C94.0409027,0.0444938272 92.3146726,7.01497531 92.406354,11.0233457 C92.5255398,16.2605309 93.5916637,17.6738642 94.8673451,19.0400864 C96.1436814,20.406963 99.4389735,22.6597901 101.75131,23.7309136 C104.897292,25.1887407 105.717841,27.1464691 105.717841,29.1513086 C105.717841,31.3367407 105.305929,33.3886914 103.347221,33.3886914 C102.252938,33.3886914 101.15931,32.933284 101.15931,31.5657531 L101.15931,26.7375185 L92.5877522,26.7375185 L92.5877522,30.1995309 C92.5877522,35.6657284 96.7828319,39.8101975 103.300071,39.8101975 C109.866425,39.8101975 114.564442,36.5300864 114.698035,28.8326543 C114.836212,20.9978148 110.412584,18.902679 108.041965,17.491963 L108.041965,17.491963 Z M139.31646,39.0361358 L147.886708,39.0361358 L147.886708,0.864358025 L139.31646,0.864358025 L139.31646,39.0361358 Z M131.201345,17.4448519 C125.584549,14.1006173 124.144496,12.7075679 124.088832,9.61001235 C124.044956,7.05946914 124.636301,5.6022963 126.321929,5.64875309 C127.888372,5.69128395 128.327788,6.65051852 128.418814,7.65228395 L128.418814,12.754679 L137.080743,12.754679 L137.080743,8.92820988 C137.080743,4.14446914 133.981257,0 126.460106,0 C117.198319,0 115.474053,6.9678642 115.565735,10.9768889 C115.682301,16.2140741 116.750389,17.6274074 118.026726,18.9936296 C119.304372,20.3605062 122.597699,22.6133333 124.909381,23.6844568 C128.054708,25.142284 128.875257,27.1019753 128.875257,29.1061605 C128.875257,31.2929012 128.46531,33.3415802 126.504637,33.3415802 C125.410354,33.3415802 124.31869,32.8861728 124.31869,31.5199506 L124.31869,26.6910617 L115.748442,26.6910617 L115.748442,30.1524198 C115.748442,35.6192716 119.942212,39.7657037 126.460106,39.7657037 C133.024496,39.7657037 137.721204,36.484284 137.856761,28.7861975 C137.992973,20.9539753 133.571965,18.8581852 131.201345,17.4448519 L131.201345,17.4448519 Z M24.8004779,0.864358025 L22.4521239,39.081284 L30.1330619,39.0361358 L30.4971681,35.0277654 L34.6922478,35.0277654 L35.0124779,39.0361358 L43.4006726,39.0361358 L39.935115,0.864358025 L24.8004779,0.864358025 Z M30.9097345,28.9236049 L32.4126549,9.20171605 L34.1919292,28.9236049 L30.9097345,28.9236049 Z" id="Fill-4" fill="#000000"></path>
            </g>
        </g>
    </g>
</svg>